<svg height="1100" width="1100" xmlns="http://www.w3.org/2000/svg"><path d="m-1-1h1102v1102h-1102z" fill="none"/><g fill="#4a90e2"><path d="m849.7 353c0 55.6-45.1 100.6-100.6 100.6s-100.7-45-100.7-100.6c0-75.5-25.2-100.6-100.6-100.6s-100.6 25.2-100.6 100.6c0 55.6-45.1 100.6-100.6 100.6s-100.7-45-100.7-100.6 45.1-100.6 100.6-100.6c75.5 0 100.6-25.2 100.6-100.6 0-55.6 45.1-100.6 100.6-100.6s100.6 45.1 100.6 100.6c0 75.5 25.2 100.6 100.6 100.6 55.8 0 100.8 45.1 100.8 100.6z"/><path d="m850.6 352.7c0 55.6-45.1 100.6-100.6 100.6-75.5 0-100.6 25.2-100.6 100.6 0 55.6-45.1 100.6-100.6 100.6-75.5 0-100.6 25.2-100.6 100.6 0 55.6-45.1 100.6-100.6 100.6-55.6 0-100.6-45.1-100.6-100.6 0-55.6 45.1-100.6 100.6-100.6 75.5 0 100.6-25.2 100.6-100.6 0-55.6 45.1-100.6 100.6-100.6 75.5 0 100.6-25.2 100.6-100.6 0-55.6 45.1-100.6 100.6-100.6s100.6 45.1 100.6 100.6z" transform="matrix(0 -1 1 0 -5.100037 1102.700012)"/><path d="m849.7 959c0 55.6-45.1 100.6-100.6 100.6s-100.7-45-100.7-100.6c0-75.5-25.2-100.6-100.6-100.6s-100.6 25.2-100.6 100.6c0 55.6-45.1 100.6-100.6 100.6s-100.7-45-100.7-100.6 45.1-100.6 100.6-100.6c75.5 0 100.6-25.2 100.6-100.6 0-55.6 45.1-100.6 100.6-100.6s100.6 45.1 100.6 100.6c0 75.5 25.2 100.6 100.6 100.6 55.8 0 100.8 45.1 100.8 100.6z" transform="matrix(-1 0 0 -1 1095.600098 1716.800049)"/></g></svg>